<svg xmlns="http://www.w3.org/2000/svg" width="83.078" height="85" viewBox="0 0 83.078 85" enable-background="new 0 0 83.078 94.539"><path fill="none" stroke="#565656" stroke-width="3" stroke-miterlimit="10" d="M57.73 32.098c-2.345-6.132-5.52-11.276-8.572-14.325-.64-.74-1.406-1.377-2.267-1.892-.877-.576-1.72-.934-2.505-1.053-.827-.218-1.698-.338-2.6-.338-.916 0-1.798.123-2.634.346-.677.112-1.4.404-2.15.858-1.053.574-1.973 1.333-2.715 2.225-3.005 3.067-6.116 8.146-8.425 14.18-1.95 5.097-2.973 9.956-3.07 13.775-.01.235-.02.47-.02.707 0 .635.037 1.262.11 1.88.054.503.132.975.23 1.416 1.672 8.1 9.394 14.227 18.67 14.227 8.98 0 16.497-5.735 18.49-13.447 1.218-3.89.368-10.96-2.54-18.56z"/><path fill="#F6CC38" stroke="#565656" stroke-width="3" stroke-miterlimit="10" d="M33.25 62.774l-3.726 8.46c0 2.017 5.49 3.65 12.265 3.65 6.774 0 12.266-1.635 12.266-3.65l-3.726-8.15-17.08-.31zM63.992 45.075c0 13.013-9.94 23.6-22.203 23.6s-22.203-10.565-22.203-23.6c0 0 21.185 6.83 44.405 0z"/><path fill="none" stroke="#565656" stroke-width="2" stroke-linecap="round" stroke-linejoin="round" stroke-miterlimit="10" d="M56.996 32.4l-5.063 4.2-5.084-4.2-5.087 4.2-5.062-4.2-5.06 4.2-5.075-4.2"/><path fill="#565656" d="M18.115 43.093s.815-2.097 4.89-1.92l-.786 3.87-3.523-1.28-.582-.67zM65.426 43.136s-.815-2.097-4.892-1.92l.787 3.87 3.524-1.28.582-.67z"/></svg>