<svg xmlns="http://www.w3.org/2000/svg" width="83.078" height="85" viewBox="0 0 83.078 85" enable-background="new 0 0 83.078 94.539"><path fill="#fff" stroke="#565656" stroke-width="3" stroke-miterlimit="10" d="M59.618 38.887c-2.462-7.14-5.794-13.127-8.995-16.677-.672-.86-1.475-1.604-2.38-2.202-.92-.673-1.804-1.088-2.628-1.227-.868-.254-1.78-.393-2.73-.393-.958 0-1.885.143-2.763.403-.712.13-1.47.47-2.257 1-1.104.667-2.07 1.55-2.85 2.588-3.153 3.57-6.416 9.483-8.838 16.507-2.047 5.934-3.12 11.59-3.22 16.036-.013.274-.022.547-.022.822 0 .74.04 1.47.115 2.188.058.586.14 1.134.243 1.648 1.756 9.43 9.856 16.56 19.592 16.56 9.418 0 17.307-6.675 19.4-15.653 1.273-4.522.384-12.75-2.667-21.598z"/><ellipse fill="#F5CD38" stroke="#565656" stroke-width="2" stroke-miterlimit="10" cx="42.892" cy="52.431" rx="11.564" ry="12.868"/></svg>