<?xml version="1.0" encoding="utf-8"?>
<!-- Generator: Adobe Illustrator 16.0.0, SVG Export Plug-In . SVG Version: 6.00 Build 0)  -->
<!DOCTYPE svg PUBLIC "-//W3C//DTD SVG 1.1//EN" "http://www.w3.org/Graphics/SVG/1.1/DTD/svg11.dtd">
<svg version="1.1" id="Layer_1" xmlns="http://www.w3.org/2000/svg" xmlns:xlink="http://www.w3.org/1999/xlink" x="0px" y="0px"
	 width="83.078px" height="85px" viewBox="0 0 83.078 85" enable-background="new 0 0 83.078 94.539" xml:space="preserve">
<path fill="#FFFFFF" stroke="#565656" stroke-width="3" stroke-miterlimit="10" d="M59.618,38.887
	c-2.462-7.14-5.794-13.127-8.995-16.677c-0.672-0.86-1.475-1.604-2.379-2.202c-0.92-0.673-1.805-1.088-2.629-1.227
	c-0.868-0.255-1.781-0.394-2.729-0.394c-0.959,0-1.886,0.143-2.764,0.403c-0.712,0.131-1.47,0.471-2.257,0.999
	c-1.104,0.668-2.07,1.55-2.849,2.589c-3.154,3.57-6.417,9.483-8.839,16.507c-2.047,5.934-3.119,11.589-3.221,16.036
	c-0.012,0.273-0.021,0.546-0.021,0.821c0,0.74,0.04,1.47,0.115,2.188c0.058,0.586,0.14,1.134,0.243,1.648
	c1.756,9.43,9.856,16.561,19.592,16.561c9.418,0,17.307-6.676,19.399-15.654C63.558,55.963,62.669,47.736,59.618,38.887z"/>
<ellipse fill="#F5CD38" stroke="#565656" stroke-width="2" stroke-miterlimit="10" cx="42.892" cy="52.431" rx="11.564" ry="12.868"/>
</svg>
