<svg xmlns="http://www.w3.org/2000/svg" width="83.078" height="85" viewBox="0 0 83.078 85" enable-background="new 0 0 83.078 94.539"><path fill="#F6CC38" d="M63.95 58.523c-1.028-.463-2.13-.803-2.98-.998v-.068c-.134-.01-.26-.008-.388-.012-.258-.05-.486-.084-.66-.096-1.287-.09-1.248.937-2.258 1.17l-.02.028c-.05.012-.105.02-.154.03 0 .08-.02.167-.027.25-4.204 6.718-9.838 9.142-16.623 9.302-6.245-.41-11.46-2.924-15.41-9.226-.016-.126-.044-.257-.044-.38-.316-.074-.65-.13-.994-.18-.305-.088-.578-.984-1.18-.957-.42-.016-.852-.02-1.305.014v.178c-.85.193-1.953.534-2.982.997-3.505 1.575-5.014 6.423.275 7.115 0 0 4.41.18 7.28 2.576 3.12 2.908 8.605 4.843 14.868 4.843 2.002 0 3.91-.216 5.702-.58.038-.008.077-.016.115-.02.357-.075.714-.15 1.062-.237.506-.123.997-.265 1.477-.413l.188-.06c2.65-.85 4.892-2.088 6.5-3.587 2.808-2.343 7.28-2.575 7.28-2.575 5.292-.692 3.784-5.54.28-7.115z"/><path fill="#fff" stroke="#565656" stroke-width="3" stroke-miterlimit="10" d="M58.158 29.857l-.153-.4c-.935-2.765-7.655-6.578-16.574-6.578-8.918 0-15.536 3.787-16.594 6.678l-.12.3c-2.045 5.935-3.118 11.59-3.22 16.037-.01.273-.02.546-.02.822 0 .74.04 1.47.115 2.188.06.586.14 1.135.244 1.65 1.756 9.43 9.856 16.56 19.59 16.56 9.42 0 17.308-6.677 19.4-15.655 1.273-4.526.384-12.753-2.666-21.603z"/><path fill="none" stroke="#565656" stroke-width="2" stroke-miterlimit="10" d="M55.843 27.53c1.004.754 1.512 1.665 1.51 2.556 0 3.17-7.127 5.742-15.922 5.742-8.793 0-15.922-2.57-15.922-5.742 0-.794.36-1.624 1.167-2.31"/><path fill="#F6CC38" d="M41.687 26.543c-4.82 0-8.73 1.347-8.79 3.015h-.03l-.488 8.185c0 .92.747 1.67 1.668 1.67.922 0 1.67-.75 1.67-1.67l-.364-6.03c1.6.578 3.844.938 6.333.938 4.857 0 8.797-1.366 8.797-3.053s-3.938-3.054-8.797-3.054z"/></svg>