<?xml version="1.0" encoding="utf-8"?>
<!-- Generator: Adobe Illustrator 16.0.0, SVG Export Plug-In . SVG Version: 6.00 Build 0)  -->
<!DOCTYPE svg PUBLIC "-//W3C//DTD SVG 1.1//EN" "http://www.w3.org/Graphics/SVG/1.1/DTD/svg11.dtd">
<svg version="1.1" id="Layer_1" xmlns="http://www.w3.org/2000/svg" xmlns:xlink="http://www.w3.org/1999/xlink" x="0px" y="0px"
	 width="83.078px" height="85px" viewBox="0 0 83.078 85" enable-background="new 0 0 83.078 94.539" xml:space="preserve">
<path fill="#F6CC38" d="M63.951,58.523c-1.029-0.463-2.131-0.803-2.982-0.998v-0.068c-0.133-0.01-0.258-0.008-0.387-0.012
	c-0.258-0.051-0.486-0.084-0.66-0.096c-1.287-0.09-1.248,0.938-2.258,1.17c-0.007,0.01-0.014,0.02-0.021,0.029
	c-0.05,0.012-0.104,0.02-0.153,0.029c0,0.08-0.021,0.168-0.027,0.251c-4.204,6.718-9.838,9.142-16.623,9.302
	c-6.245-0.41-11.46-2.924-15.41-9.226c-0.016-0.126-0.044-0.257-0.044-0.38c-0.316-0.074-0.65-0.131-0.994-0.18
	c-0.305-0.088-0.578-0.984-1.181-0.957c-0.419-0.016-0.851-0.02-1.304,0.014v0.177c-0.851,0.193-1.953,0.534-2.982,0.997
	c-3.505,1.575-5.014,6.423,0.275,7.115c0,0,4.409,0.18,7.279,2.576c3.121,2.908,8.606,4.843,14.869,4.843
	c2.002,0,3.91-0.215,5.702-0.579c0.038-0.008,0.077-0.016,0.115-0.021c0.357-0.074,0.714-0.148,1.062-0.236
	c0.506-0.123,0.997-0.265,1.477-0.413c0.062-0.021,0.127-0.039,0.188-0.06c2.651-0.851,4.892-2.088,6.499-3.587
	c2.809-2.343,7.28-2.575,7.28-2.575C68.964,64.946,67.456,60.099,63.951,58.523z"/>
<path fill="#FFFFFF" stroke="#565656" stroke-width="3" stroke-miterlimit="10" d="M58.158,29.857l-0.153-0.401
	c-0.935-2.764-7.655-6.577-16.574-6.577c-8.919,0-15.537,3.788-16.595,6.679l-0.119,0.301c-2.046,5.934-3.119,11.589-3.22,16.036
	c-0.012,0.273-0.021,0.546-0.021,0.822c0,0.74,0.04,1.469,0.115,2.188c0.058,0.586,0.14,1.135,0.243,1.649
	c1.756,9.43,9.856,16.56,19.591,16.56c9.419,0,17.307-6.676,19.398-15.654C62.097,46.934,61.208,38.707,58.158,29.857z"/>
<path fill="none" stroke="#565656" stroke-width="2" stroke-miterlimit="10" d="M55.843,27.531c1.004,0.753,1.512,1.664,1.51,2.555
	c0,3.171-7.127,5.742-15.922,5.742c-8.794,0-15.923-2.57-15.923-5.742c0-0.794,0.361-1.624,1.167-2.311"/>
<path fill="#F6CC38" d="M41.687,26.543c-4.82,0-8.729,1.347-8.791,3.015l-0.028-0.001l-0.489,8.186c0,0.921,0.748,1.669,1.669,1.669
	c0.922,0,1.669-0.748,1.669-1.669l-0.363-6.03c1.601,0.578,3.844,0.938,6.333,0.938c4.857,0,8.797-1.367,8.797-3.054
	S46.546,26.543,41.687,26.543z"/>
</svg>
