<?xml version="1.0" encoding="utf-8"?>
<!-- Generator: Adobe Illustrator 16.0.0, SVG Export Plug-In . SVG Version: 6.00 Build 0)  -->
<!DOCTYPE svg PUBLIC "-//W3C//DTD SVG 1.1//EN" "http://www.w3.org/Graphics/SVG/1.1/DTD/svg11.dtd">
<svg version="1.1" id="Layer_1" xmlns="http://www.w3.org/2000/svg" xmlns:xlink="http://www.w3.org/1999/xlink" x="0px" y="0px"
	 width="83.078px" height="85px" viewBox="0 0 83.078 85" enable-background="new 0 0 83.078 94.539" xml:space="preserve">
<g>
	<path fill="none" stroke="#565656" stroke-width="3" stroke-miterlimit="10" d="M57.73,32.098
		c-2.345-6.132-5.521-11.276-8.572-14.325c-0.641-0.739-1.406-1.377-2.267-1.892c-0.878-0.577-1.72-0.935-2.506-1.054
		c-0.827-0.218-1.698-0.338-2.601-0.338c-0.915,0-1.797,0.124-2.633,0.347C38.473,14.948,37.75,15.24,37,15.694
		c-1.053,0.574-1.973,1.333-2.715,2.225c-3.005,3.068-6.116,8.147-8.425,14.18c-1.951,5.098-2.973,9.957-3.07,13.776
		c-0.011,0.235-0.021,0.469-0.021,0.707c0,0.635,0.038,1.262,0.11,1.88c0.055,0.503,0.133,0.975,0.23,1.416
		c1.673,8.101,9.395,14.227,18.672,14.227c8.979,0,16.496-5.735,18.49-13.447C61.488,46.768,60.638,39.699,57.73,32.098z"/>
	<path fill="#F6CC38" stroke="#565656" stroke-width="3" stroke-miterlimit="10" d="M33.25,62.774l-3.726,8.461
		c0,2.016,5.491,3.648,12.265,3.648c6.775,0,12.267-1.634,12.267-3.648l-3.726-8.151L33.25,62.774z"/>
	<path fill="#F6CC38" stroke="#565656" stroke-width="3" stroke-miterlimit="10" d="M63.992,45.075
		c0,13.013-9.94,23.599-22.203,23.599c-12.262,0-22.202-10.564-22.202-23.599C19.587,45.075,40.772,51.906,63.992,45.075z"/>
	
		<polyline fill="none" stroke="#565656" stroke-width="2" stroke-linecap="round" stroke-linejoin="round" stroke-miterlimit="10" points="
		56.996,32.4 51.933,36.601 46.849,32.4 41.763,36.601 36.701,32.4 31.639,36.601 26.565,32.4 	"/>
	<path fill="#565656" d="M18.115,43.093c0,0,0.815-2.097,4.891-1.921l-0.787,3.872l-3.522-1.281L18.115,43.093z"/>
	<path fill="#565656" d="M65.426,43.136c0,0-0.815-2.097-4.892-1.921l0.787,3.872l3.523-1.282L65.426,43.136z"/>
</g>
</svg>
