<?xml version="1.0" encoding="utf-8"?>
<!-- Generator: Adobe Illustrator 16.0.0, SVG Export Plug-In . SVG Version: 6.00 Build 0)  -->
<!DOCTYPE svg PUBLIC "-//W3C//DTD SVG 1.1//EN" "http://www.w3.org/Graphics/SVG/1.1/DTD/svg11.dtd">
<svg version="1.1" id="Layer_1" xmlns="http://www.w3.org/2000/svg" xmlns:xlink="http://www.w3.org/1999/xlink" x="0px" y="0px"
	 width="153.89px" height="153.891px" viewBox="0 0 153.89 153.891" enable-background="new 0 0 153.89 153.891"
	 xml:space="preserve">
<path d="M76.982,77.282c-0.025-0.35-0.067-0.69-0.073-1.051C76.938,77.939,76.965,77.871,76.982,77.282z"/>
<path d="M76.904,77.524c0.011-0.298,0.042-0.597,0.083-0.896C76.976,76.183,76.951,76.202,76.904,77.524z"/>
<path fill="#FFFFFF" d="M76.974,77.919c0.015-0.532,0.021-1.486,0.01-1.947c-0.041,0.299-0.072,0.598-0.083,0.896
	C76.907,77.229,76.949,77.569,76.974,77.919z"/>
<path d="M103.972,85.365C90.192,74.118,54.144,72.89,52.604,51.646c0.015-0.537,0.021-1.5,0.01-1.965
	c2.057-15.036,41.326-30.886,45.482-13.825c2.249,9.225-31.276,24.234-29.033,27.386c2.23,3.133,45.422-23.832,42.023-34.84
	c-3.413-11.053-24.731-6.72-31.625-4.85c-10.852,2.944-19.395,10.066-27.836,17.136c-9.661,8.088-17.741,22.147-5.856,32.532
	c8.507,7.433,19.811,9.389,30.068,13.328c8.867,3.407,21.654,9.642,24.988,19.479c4.475,13.207-4.598,16.898-16.006,16.525
	c-9.388-0.308-23.101-3.246-28.84-11.515c-0.832-1.201-3.462-10.416-6.108-7.863c-2.277,2.195-8.483,6.747-9.058,9.934
	c-3.819,21.123,38.068,21.901,49.056,17.5C109.965,122.556,124.823,102.384,103.972,85.365z"/>
</svg>
