<svg xmlns="http://www.w3.org/2000/svg" width="153.89" height="153.891" viewBox="0 0 153.89 153.891"><path d="M76.982 77.282c-.025-.35-.067-.69-.073-1.05.028 1.707.055 1.64.072 1.05zM76.904 77.524c.01-.298.042-.597.083-.896-.01-.445-.036-.426-.083.896z"/><path fill="#fff" d="M76.974 77.92c.015-.533.02-1.487.01-1.948-.04.3-.072.598-.083.896.007.36.05.7.074 1.05z"/><path d="M103.972 85.365c-13.78-11.247-49.828-12.475-51.368-33.72.015-.536.02-1.5.01-1.964C54.67 34.646 93.94 18.796 98.096 35.857c2.25 9.225-31.276 24.234-29.033 27.386 2.23 3.133 45.422-23.832 42.023-34.84-3.413-11.053-24.73-6.72-31.625-4.85-10.85 2.944-19.394 10.066-27.835 17.136-9.66 8.088-17.74 22.147-5.856 32.532 8.506 7.433 19.81 9.39 30.067 13.328 8.867 3.407 21.654 9.642 24.988 19.48 4.475 13.206-4.598 16.897-16.006 16.524-9.39-.308-23.102-3.246-28.84-11.515-.833-1.2-3.463-10.416-6.11-7.863-2.276 2.195-8.482 6.747-9.057 9.934-3.82 21.123 38.068 21.9 49.056 17.5 20.095-8.052 34.953-28.224 14.102-45.243z"/></svg>