<svg xmlns="http://www.w3.org/2000/svg" width="153.9" height="153.9" viewBox="0 0 153.9 153.9"><path d="M77 77.3c0-.3-.1-.7-.1-1.1 0 1.7.1 1.7.1 1.1zM76.9 77.5c0-.3 0-.6.1-.9 0-.4 0-.4-.1.9z"/><path fill="#fff" d="M77 77.9V76c0 .3-.1.6-.1.9s0 .7.1 1zM104 85.4C90.2 74.1 54.1 72.9 52.6 51.6v-2c2.1-15 41.3-30.9 45.5-13.8 2.2 9.2-31.3 24.2-29 27.4 2.2 3.1 45.4-23.8 42-34.8-3.4-11.1-24.7-6.7-31.6-4.8-10.9 2.9-19.4 10.1-27.8 17.1C42 48.8 34 62.8 45.8 73.2c8.5 7.4 19.8 9.4 30.1 13.3 8.9 3.4 21.7 9.6 25 19.5 4.5 13.2-4.6 16.9-16 16.5-9.4-.3-23.1-3.2-28.8-11.5-.8-1.2-3.5-10.4-6.1-7.9-2.3 2.2-8.5 6.7-9.1 9.9-3.8 21.1 38.1 21.9 49.1 17.5 20-7.9 34.8-28.1 14-45.1z"/></svg>